<svg width="0" height="0" class="icon">
  <symbol fill="none" xmlns="http://www.w3.org/2000/svg" viewBox="0 0 874 92" id="line">

    <g clip-path="url(#clip0_0_1)">
      <rect x="-523" y="-56" width="1920" height="306" fill="#333333"></rect>
      <g clip-path="url(#clip1_0_1)">
        <path opacity="0.502" d="M1 91C1 91 217.014 -110.278 442.118 91C442.118 91 639.939 -111.5 873 91" stroke="white" stroke-linecap="round" stroke-dasharray="2 5"></path>
        <rect x="-60" y="48" width="96" height="96" rx="48" fill="#333333"></rect>
        <rect x="389" y="48" width="96" height="96" rx="48" fill="#333333"></rect>
        <path d="M437 65C419.879 65 406 78.8791 406 96C406 113.121 419.879 127 437 127C454.121 127 468 113.121 468 96C468 78.8791 454.121 65 437 65ZM437 71C450.816 71 462 82.1814 462 96C462 109.816 450.819 121 437 121C423.184 121 412 109.819 412 96C412 82.1835 423.181 71 437 71ZM454.526 87.2834L451.708 84.4436C451.125 83.8555 450.175 83.8516 449.587 84.4351L431.918 101.962L424.444 94.4275C423.861 93.8394 422.911 93.8355 422.323 94.4189L419.483 97.2359C418.895 97.8192 418.891 98.769 419.475 99.3573L430.822 110.797C431.406 111.385 432.355 111.389 432.944 110.805L454.517 89.4048C455.105 88.8213 455.109 87.8715 454.526 87.2834Z" fill="#FF6363"></path>
        <rect x="836" y="48" width="96" height="96" rx="48" fill="#333333"></rect>
      </g>
    </g>
    <defs>
      <clipPath id="clip0_0_1">
        <rect width="1920" height="306" fill="white" transform="translate(-523 -56)"></rect>
      </clipPath>
      <clipPath id="clip1_0_1">
        <rect width="1320" height="306" fill="white" transform="translate(-223 -59)"></rect>
      </clipPath>
    </defs>
  </symbol>
</svg>