<svg width="0" height="0" class="icon">
  <symbol fill="none" xmlns="http://www.w3.org/2000/svg" viewBox="0 0 634 59" id="line">
    <rect x="-195" y="-86" width="1024" height="306" fill="#333333"></rect>
    <g clip-path="url(#clip0_2_287)">
      <path opacity="0.57" d="M1 58C1 58 157.56 -69.476 320.709 58C320.709 58 464.084 -70.25 633 58" stroke="white" stroke-linecap="round" stroke-dasharray="2 5"></path>
      <rect x="-59" y="36" width="96" height="96" rx="48" fill="#333333"></rect>
      <rect x="269" y="36" width="96" height="96" rx="48" fill="#333333"></rect>
      <path d="M317 53C299.879 53 286 66.8791 286 84C286 101.121 299.879 115 317 115C334.121 115 348 101.121 348 84C348 66.8791 334.121 53 317 53ZM317 59C330.816 59 342 70.1814 342 84C342 97.8165 330.819 109 317 109C303.184 109 292 97.8186 292 84C292 70.1835 303.181 59 317 59ZM334.526 75.2834L331.708 72.4436C331.125 71.8555 330.175 71.8516 329.587 72.4351L311.918 89.9621L304.444 82.4275C303.861 81.8394 302.911 81.8355 302.323 82.4189L299.483 85.2359C298.895 85.8192 298.891 86.769 299.475 87.3573L310.822 98.7967C311.406 99.3849 312.355 99.3887 312.944 98.8052L334.517 77.4048C335.105 76.8213 335.109 75.8715 334.526 75.2834V75.2834Z" fill="#FF6363"></path>
      <rect x="597" y="36" width="96" height="96" rx="48" fill="#333333"></rect>
    </g>
    <defs>
      <clipPath id="clip0_2_287">
        <rect width="960" height="306" fill="white" transform="translate(-163 -86)"></rect>
      </clipPath>
    </defs>
  </symbol>
</svg>